<?xml version="1.0" encoding="utf-8"?>
<!-- Generator: Adobe Illustrator 24.1.2, SVG Export Plug-In . SVG Version: 6.00 Build 0)  -->
<svg version="1.1" id="Layer_1" xmlns="http://www.w3.org/2000/svg" xmlns:xlink="http://www.w3.org/1999/xlink" x="0px" y="0px"
	 viewBox="0 0 500 500" style="enable-background:new 0 0 500 500;" xml:space="preserve">
<style type="text/css">
	.st0{fill:#00B4FF;}
	.st1{fill:#FFFFFF;}
</style>
<g>
	<path class="st0" d="M263.15,39.36c26.91-8.25,56.79-7.07,82.73,4c38,14.83,67.45,50.01,75.08,90.15
		c2.03,8.53,2.16,17.31,3.48,25.95c7.72,3.03,15.96,4.72,23.3,8.7c22.63,11.01,38.66,33.28,44.15,57.58
		c2.31,17.85,1.47,36.82-7.16,53.02c-13.06,28.21-43.66,47.36-74.76,46.7c-106.92-0.02-213.85-0.04-320.77,0
		c-22.33,0.34-43.73-10.15-59.63-25.39c-13.83-15.82-22.74-36.42-22.57-57.64c-0.45-26.78,13.59-53.26,35.67-68.26
		c9.53-7.37,21.24-10.45,32.42-14.3c2.12-5.36,1.94-11.33,3.21-16.91c5.58-24.13,25.11-44.6,49.16-50.84
		c20.2-5.75,42.38-1.11,59.58,10.6C202.86,72.82,230.13,48.25,263.15,39.36z"/>
</g>
<g>
	<circle class="st1" cx="124.5" cy="175.5" r="16.5"/>
	<path class="st1" d="M167.5,159h214c9.11,0,16.5,7.39,16.5,16.5v0c0,9.11-7.39,16.5-16.5,16.5h-214c-9.11,0-16.5-7.39-16.5-16.5v0
		C151,166.39,158.39,159,167.5,159z"/>
	<path class="st1" d="M167.5,208h214c9.11,0,16.5,7.39,16.5,16.5v0c0,9.11-7.39,16.5-16.5,16.5h-214c-9.11,0-16.5-7.39-16.5-16.5v0
		C151,215.39,158.39,208,167.5,208z"/>
	<path class="st1" d="M167.5,257h214c9.11,0,16.5,7.39,16.5,16.5v0c0,9.11-7.39,16.5-16.5,16.5h-214c-9.11,0-16.5-7.39-16.5-16.5v0
		C151,264.39,158.39,257,167.5,257z"/>
	<circle class="st1" cx="124.5" cy="224.5" r="16.5"/>
	<circle class="st1" cx="124.5" cy="273.5" r="16.5"/>
</g>
</svg>
