<?xml version="1.0" encoding="utf-8"?>
<!-- Generator: Adobe Illustrator 24.1.2, SVG Export Plug-In . SVG Version: 6.00 Build 0)  -->
<svg version="1.1" id="Layer_1" xmlns="http://www.w3.org/2000/svg" xmlns:xlink="http://www.w3.org/1999/xlink" x="0px" y="0px"
	 viewBox="0 0 500 500" style="enable-background:new 0 0 500 500;" xml:space="preserve">
<style type="text/css">
	.st0{fill:#00B4FF;}
	.st1{fill:#FFFFFF;}
	.st2{fill:#FFFFFF;stroke:#FFFFFF;stroke-width:4;stroke-miterlimit:10;}
</style>
<g>
	<path class="st0" d="M263.15,39.36c26.91-8.25,56.79-7.07,82.73,4c38,14.83,67.45,50.01,75.08,90.15
		c2.03,8.53,2.16,17.31,3.48,25.95c7.72,3.03,15.96,4.72,23.3,8.7c22.63,11.01,38.66,33.28,44.15,57.58
		c2.31,17.85,1.47,36.82-7.16,53.02c-13.06,28.21-43.66,47.36-74.76,46.7c-106.92-0.02-213.85-0.04-320.77,0
		c-22.33,0.34-43.73-10.15-59.63-25.39c-13.83-15.82-22.74-36.42-22.57-57.64c-0.45-26.78,13.59-53.26,35.67-68.26
		c9.53-7.37,21.24-10.45,32.42-14.3c2.12-5.36,1.94-11.33,3.21-16.91c5.58-24.13,25.11-44.6,49.16-50.84
		c20.2-5.75,42.38-1.11,59.58,10.6C202.86,72.82,230.13,48.25,263.15,39.36z"/>
</g>
<g>
	<path class="st1" d="M298.37,176.38l-46.68,66.46c-5.83,2.62-10.75,7.33-13.51,13.66c-5.9,13.51,0.27,29.24,13.78,35.13
		c13.51,5.9,29.24-0.27,35.13-13.78c3.06-7.02,2.87-14.63,0.08-21.16L298.37,176.38z"/>
	<circle class="st0" cx="262.3" cy="267.31" r="19.76"/>
</g>
<path class="st0" d="M162.48,283c-1.91-7.97-2.92-16.28-2.92-24.84c0-58.8,47.67-106.47,106.47-106.47S372.5,199.36,372.5,258.16
	c0,8.55-1.02,16.87-2.92,24.84h38.92c1.31-7.81,2.01-15.82,2.01-24c0-79.53-64.47-144-144-144s-144,64.47-144,144
	c0,8.18,0.69,16.19,2.01,24H162.48z"/>
<g>
	<path class="st2" d="M233.43,118.82c-22.53,5.29-43.02,15.88-60.08,30.38l21.03,30.21c12.95-11.79,28.81-20.42,46.39-24.7
		L233.43,118.82z"/>
	<path class="st2" d="M150.69,173.41c-12.55,16.95-21.46,36.75-25.59,58.25l35.3,13.01c2.12-16.78,8.15-32.34,17.15-45.75
		L150.69,173.41z"/>
	<path class="st2" d="M360.85,150.21l-21.52,30.73c12.04,11.43,21.4,25.65,27.07,41.62l32.55-20.15
		C390.31,182.22,377.2,164.41,360.85,150.21z"/>
	<path class="st2" d="M371.76,245.61c0.48,4.12,0.74,8.31,0.74,12.56c0,8.55-1.02,16.87-2.92,24.84h38.92
		c1.31-7.81,2.01-15.82,2.01-24c0-9.12-0.86-18.05-2.48-26.7L371.76,245.61z"/>
	<path class="st2" d="M333.15,131.33c-19.66-10.29-41.99-16.16-65.69-16.32l-0.07,36.7c18.53,0.23,35.91,5.2,51,13.74L333.15,131.33
		z"/>
	<path class="st2" d="M122.54,262.16c0.16,7.08,0.83,14.04,1.97,20.84h37.97c-1.18-4.94-2.02-10-2.49-15.18L122.54,262.16z"/>
</g>
</svg>
