<svg id="Layer_1" data-name="Layer 1" xmlns="http://www.w3.org/2000/svg" viewBox="0 0 365.74 116.3"><defs><style>.cls-1{font-size:94.22px;font-family:Arial-BoldMT, Arial;font-weight:700;}.cls-1,.cls-2{fill:#fff;}</style></defs><text class="cls-1" transform="translate(72.26 80.83)">Mixtli</text><path class="cls-2" d="M82.63,18.48a27.78,27.78,0,0,0-10.92,2.64,29.72,29.72,0,0,0-13.57,13,16.11,16.11,0,0,0-20.35,1.42,17.29,17.29,0,0,0-5,11.67,21.73,21.73,0,0,0-8,3.58,19.06,19.06,0,0,0-7.5,17.68c.91,9,9.24,16.58,18.31,16.56H82.63Z" transform="translate(-17.1 -4.7)"/><path class="cls-2" d="M377.83,53.59a20.9,20.9,0,0,0-10.73-6c-.52-2.54-.29-5.19-1.12-7.67a28.52,28.52,0,0,0-28.85-21.08V85.44H364a19,19,0,0,0,18.26-14.36A19.26,19.26,0,0,0,377.83,53.59Z" transform="translate(-17.1 -4.7)"/></svg>