<svg xmlns="http://www.w3.org/2000/svg" xmlns:xlink="http://www.w3.org/1999/xlink" viewBox="0 0 512 256"><defs><style>.cls-1{fill:none;}.cls-2{clip-path:url(#clip-path);}.cls-3{fill:#fff;}.cls-4{fill:#cf142b;}.cls-5{fill:#00247d;}.cls-6{fill:url(#linear-gradient);}.cls-7{opacity:0.1;}.cls-8{fill:#231f20;}</style><clipPath id="clip-path" transform="translate(128)"><circle class="cls-1" cx="128" cy="128" r="128"/></clipPath><linearGradient id="linear-gradient" x1="176.45" y1="207.55" x2="335.55" y2="48.45" gradientUnits="userSpaceOnUse"><stop offset="0" stop-color="#fff" stop-opacity="0.1"/><stop offset="0.37" stop-color="#fff" stop-opacity="0.11"/><stop offset="0.59" stop-color="#fff" stop-opacity="0.14"/><stop offset="0.77" stop-color="#fff" stop-opacity="0.2"/><stop offset="0.93" stop-color="#fff" stop-opacity="0.28"/><stop offset="0.97" stop-color="#fff" stop-opacity="0.3"/><stop offset="1" stop-color="#fff" stop-opacity="0.2"/></linearGradient></defs><g id="Countryflags.com"><g class="cls-2"><rect id="_14" data-name="14" class="cls-3" width="511.73" height="255.97"/><polygon id="_13" data-name="13" class="cls-4" points="230.28 153.51 230.28 255.97 281.46 255.97 281.46 153.51 511.73 153.51 511.73 102.33 281.46 102.33 281.46 0 230.28 0 230.28 102.33 0 102.33 0 153.51 230.28 153.51"/><polygon id="_12" data-name="12" class="cls-5" points="298.52 82.86 298.52 0 464.2 0 298.52 82.86"/><polygon id="_11" data-name="11" class="cls-5" points="298.52 173.11 298.52 255.97 464.2 255.97 298.52 173.11"/><polygon id="_10" data-name="10" class="cls-5" points="213.21 173.11 213.21 255.97 47.53 255.97 213.21 173.11"/><polygon id="_9" data-name="9" class="cls-5" points="213.21 82.86 213.21 0 47.53 0 213.21 82.86"/><polygon id="_8" data-name="8" class="cls-5" points="0 23.8 0 85.32 123.03 85.32 0 23.8"/><polygon id="_7" data-name="7" class="cls-5" points="511.73 23.8 511.73 85.32 388.7 85.32 511.73 23.8"/><polygon id="_6" data-name="6" class="cls-5" points="511.73 232.18 511.73 170.65 388.7 170.65 511.73 232.18"/><polygon id="_5" data-name="5" class="cls-5" points="0 232.18 0 170.65 123.03 170.65 0 232.18"/><polyline id="_4" data-name="4" class="cls-4" points="511.73 0 483.31 0 313 85.32 341.43 85.32 512 0"/><polyline id="_3" data-name="3" class="cls-4" points="198.73 170.65 170.31 170.65 0 255.97 28.42 255.97 199 170.65"/><polygon id="_2" data-name="2" class="cls-4" points="142.11 85.39 170.53 85.39 0 0 0 14.31 142.11 85.39"/><polygon id="_1" data-name="1" class="cls-4" points="369.53 170.61 341.11 170.61 511.64 256 511.64 241.69 369.53 170.61"/></g></g><g id="Light"><circle class="cls-6" cx="256" cy="128" r="112.5"/></g><g id="Edge"><g class="cls-7"><path class="cls-8" d="M128,0A128,128,0,1,1,0,128,128,128,0,0,1,128,0ZM240.5,128A112.5,112.5,0,1,0,128,240.5,112.5,112.5,0,0,0,240.5,128Z" transform="translate(128)"/></g></g></svg>